<svg xmlns="http://www.w3.org/2000/svg" width="400" height="400" viewBox="0 0 410 210">
  <path fill="#d803d8" d="M6.57 126L14.01 126L14.01 98.03C14.01 91.93 16.50 86.94 24.49 86.94C25.87 86.94 27.33 86.98 28.10 87.11L28.10 80.37C27.20 80.24 26.25 80.15 25.31 80.15C18.91 80.15 15.51 83.68 14.18 86.38L13.96 86.38L13.96 80.84L6.57 80.84ZM53.50 126.73C63.46 126.73 69.44 121.19 71.16 113.71L63.81 113.71C62.35 117.92 58.91 120.54 53.67 120.54C46.32 120.54 41.94 114.66 41.94 106.06L41.94 105.25L71.76 105.25L71.76 101.04C71.76 88.62 64.97 80.11 53.15 80.11C41.29 80.11 34.55 88.62 34.55 100.52L34.55 105.59C34.55 118.44 41.72 126.73 53.50 126.73ZM41.94 99.27L41.94 99.14C41.94 92.01 46.32 86.30 53.20 86.30C59.94 86.30 64.37 91.97 64.37 99.14L64.37 99.27Z"/>
  <path d="M99.17 80.15C87.79 80.15 81.13 89.09 81.13 101.38L81.13 105.46C81.13 118.05 87.40 126.69 99.17 126.69C105.23 126.69 109.96 123.85 112.49 119.21L112.66 119.21L112.66 126L119.75 126L119.75 64.25L112.36 64.25L112.36 87.11L112.15 87.11C109.87 83.12 105.14 80.15 99.17 80.15ZM100.20 86.60C107.81 86.60 112.49 92.53 112.49 101.64L112.49 105.25C112.49 114.83 107.89 120.24 100.33 120.24C93.50 120.24 88.56 115.26 88.56 105.20L88.56 101.64C88.56 91.58 93.50 86.60 100.20 86.60ZM150.65 80.11C138.02 80.11 131.23 89.26 131.23 101.34L131.23 105.38C131.23 117.62 137.97 126.73 150.65 126.73C163.32 126.73 169.98 117.62 169.98 105.38L169.98 101.34C169.98 89.26 163.28 80.11 150.65 80.11ZM150.65 86.43C158.38 86.43 162.59 92.36 162.59 101.59L162.59 105.12C162.59 114.36 158.38 120.33 150.65 120.33C142.87 120.33 138.62 114.31 138.62 105.12L138.62 101.59C138.62 92.36 142.87 86.43 150.65 86.43ZM184.21 80.84L178.11 80.84L178.11 87.03L184.16 87.03L184.16 113.37C184.16 122.26 186.36 126.39 197.05 126.39C198.60 126.39 200.15 126.21 200.79 126.09L200.79 120.16C200.19 120.24 199.63 120.24 198.90 120.24C193.36 120.24 191.55 118.87 191.55 113.45L191.55 87.03L200.49 87.03L200.49 80.84L191.55 80.84L191.55 69.58L184.21 69.58Z"/>
</svg>
