<svg xmlns="http://www.w3.org/2000/svg" width="195" height="210">
  <path fill="#d803d8" d="M7.39 126L10.44 126L10.44 100.30C10.44 90.25 14.74 83.76 22.86 83.76C24.54 83.76 26.13 84.06 26.60 84.15L26.60 81.27C26.04 81.18 25.01 80.93 23.20 80.93C15.13 80.93 11.90 85.65 10.61 90.25L10.44 90.25L10.44 81.61L7.39 81.61ZM51.61 126.77C62.13 126.77 67.07 120.07 67.68 114.87L64.63 114.87C64.07 118.95 60.03 123.98 51.65 123.98C42.71 123.98 37.00 117.75 37.00 106.32L37.00 103.96L68.32 103.96L68.32 101.81C68.32 88.06 61.40 80.84 51.13 80.84C40.82 80.84 33.99 88.06 33.99 101.72L33.99 106.41C33.99 119.38 40.65 126.77 51.61 126.77ZM37.00 101.25L37.00 101.08C37.00 90.08 42.63 83.63 51.13 83.63C59.64 83.63 65.27 90.08 65.27 101.08L65.27 101.25Z"/>
  <path d="M95.86 80.84C86.88 80.84 78.89 87.24 78.89 99.79L78.89 107.91C78.89 119.47 85.94 126.77 95.78 126.77C105.70 126.77 109.61 119.81 110.52 117.06L110.69 117.06L110.69 126L113.65 126L113.65 64.34L110.64 64.34L110.64 90.38L110.47 90.38C109.23 86.81 105.06 80.84 95.86 80.84ZM95.95 83.68C104.93 83.68 110.64 90.89 110.64 100.30L110.64 107.52C110.64 116.12 105.45 123.98 95.95 123.98C88.21 123.98 81.94 118.09 81.94 107.44L81.94 100.39C81.94 88.83 88.77 83.68 95.95 83.68ZM144.38 80.84C134.02 80.84 126.41 87.84 126.41 100.61L126.41 107.18C126.41 119.86 134.11 126.77 144.38 126.77C154.60 126.77 162.42 119.90 162.42 107.18L162.42 100.61C162.42 88.02 154.52 80.84 144.38 80.84ZM144.38 83.63C152.88 83.63 159.37 89.65 159.37 100.99L159.37 106.84C159.37 118.27 152.93 123.98 144.42 123.98C135.78 123.98 129.42 118.14 129.42 106.84L129.42 100.99C129.42 89.56 135.82 83.63 144.38 83.63ZM177.12 81.61L169.90 81.61L169.90 84.28L177.12 84.28L177.12 116.16C177.12 123.72 179.57 126.43 187.52 126.43C189.66 126.43 191.17 126.21 192.07 126L192.07 123.46C191.04 123.68 189.54 123.81 188.03 123.81C182.40 123.81 180.13 122.30 180.13 116.89L180.13 84.28L191.47 84.28L191.47 81.61L180.13 81.61L180.13 70.87L177.12 70.87Z"/>
</svg>