<svg xmlns="http://www.w3.org/2000/svg" width="1012" height="300" viewBox="0 0 1012 300">
  <style>
    .b {fill: #0d1117}
    .l {fill: #fff}
    @media (prefers-color-scheme: light) {
      .b {fill: #fff}
      .l {fill: #0d1117}
    }
  </style>
  <rect class="b" x="0" y="0" width="1012" height="300" />
  <path fill="#d803d8" d="M430.52 171.80L430.52 157.62Q430.52 151.14 433.53 147.30Q436.55 143.47 441.65 143.47L441.65 143.47Q442.94 143.47 444.34 143.70Q445.75 143.94 446.83 144.35L446.83 144.35L446.83 140.16Q446.10 139.83 444.86 139.64Q443.61 139.45 442.24 139.45L442.24 139.45Q437.64 139.45 434.65 141.75Q431.66 144.05 430.84 148.27L430.84 148.27L430.43 148.27L430.43 140.24L419.53 140.24L419.53 143.35L426.68 143.35L426.68 171.80L430.52 171.80ZM420.17 171.80L440.54 171.80L440.54 168.69L420.17 168.69L420.17 171.80ZM469.42 143.12L469.42 143.12Q473.61 143.12 475.97 145.97Q478.33 148.83 478.33 153.87L478.33 153.87L460.28 153.87Q460.28 148.80 462.71 145.96Q465.15 143.12 469.42 143.12ZM482.08 164.00L478.27 164.00Q477.54 166.32 475.31 167.61Q473.08 168.90 469.86 168.90L469.86 168.90Q465.47 168.90 462.88 165.98Q460.28 163.07 460.28 158.12L460.28 158.12L460.28 157.03L482.23 157.03L482.23 154.54Q482.23 149.82 480.72 146.51Q479.21 143.20 476.35 141.46Q473.50 139.72 469.42 139.72L469.42 139.72Q465.53 139.72 462.60 141.43Q459.67 143.14 458.06 146.24Q456.44 149.33 456.44 153.49L456.44 153.49L456.44 158.09Q456.44 164.82 459.97 168.57Q463.50 172.32 469.86 172.32L469.86 172.32Q473.06 172.32 475.62 171.30Q478.18 170.27 479.87 168.40Q481.55 166.52 482.08 164.00L482.08 164.00Z"/>
  <path class="l" d="M504.78 172.32L504.78 172.32Q501.12 172.32 498.35 170.65Q495.58 168.98 494.03 165.98Q492.48 162.98 492.48 159.05L492.48 159.05L492.48 152.99Q492.48 149.03 494.03 146.04Q495.58 143.06 498.35 141.39Q501.12 139.72 504.78 139.72L504.78 139.72Q508.21 139.72 510.70 141.06Q513.19 142.41 514.31 144.90L514.31 144.90L514.83 144.90L514.83 127.68L518.67 127.68L518.67 171.80L515.01 171.80L515.01 167.26L514.48 167.26Q513.10 169.75 510.63 171.04Q508.15 172.32 504.78 172.32ZM505.63 168.90L505.63 168.90Q509.85 168.90 512.39 165.97Q514.92 163.04 514.92 158.14L514.92 158.14L514.92 153.93Q514.92 149.03 512.39 146.10Q509.85 143.17 505.63 143.17L505.63 143.17Q501.39 143.17 498.85 146.10Q496.32 149.03 496.32 153.93L496.32 153.93L496.32 158.14Q496.32 163.01 498.85 165.95Q501.39 168.90 505.63 168.90ZM543.28 172.32L543.28 172.32Q547.35 172.32 550.36 170.61Q553.36 168.90 555.00 165.76Q556.64 162.63 556.64 158.38L556.64 158.38L556.64 153.69Q556.64 149.44 555.00 146.31Q553.36 143.17 550.36 141.46Q547.35 139.75 543.28 139.75L543.28 139.75Q539.21 139.75 536.21 141.46Q533.20 143.17 531.56 146.31Q529.92 149.44 529.92 153.69L529.92 153.69L529.92 158.38Q529.92 162.63 531.56 165.76Q533.20 168.90 536.21 170.61Q539.21 172.32 543.28 172.32ZM543.28 143.17L543.28 143.17Q547.67 143.17 550.24 146.12Q552.80 149.06 552.80 154.19L552.80 154.19L552.80 157.88Q552.80 163.01 550.24 165.95Q547.67 168.90 543.28 168.90L543.28 168.90Q538.89 168.90 536.32 165.95Q533.76 163.01 533.76 157.88L533.76 157.88L533.76 154.19Q533.76 149.06 536.32 146.12Q538.89 143.17 543.28 143.17ZM579.26 132.04L575.42 132.04L575.42 140.24L566.92 140.24L566.92 143.50L575.42 143.50L575.42 162.69Q575.42 165.79 576.68 167.86Q577.94 169.92 580.46 170.95Q582.98 171.97 586.76 171.97L586.76 171.97Q588.13 171.97 589.95 171.86Q591.77 171.74 592.47 171.62L592.47 171.62L592.47 168.34Q591.71 168.46 590.16 168.52Q588.60 168.57 586.96 168.57L586.96 168.57Q583.21 168.57 581.23 167.04Q579.26 165.50 579.26 162.57L579.26 162.57L579.26 143.50L592.47 143.50L592.47 140.24L579.26 140.24L579.26 132.04Z"/>
</svg>
